<svg xmlns="http://www.w3.org/2000/svg" viewBox="0 0 302.4 110.0" role="img" aria-label="Citron">
  <g transform="translate(6.0, 76.0)" fill="var(--citron-wordmark-fill, #1d1c19)">
    <path d="M30.5 1.4Q23.4 1.4 17.65 -1.6Q11.9 -4.6 8.55 -10.3Q5.2 -16 5.2 -24L5.2 -25.3Q5.2 -33.3 8.55 -38.95Q11.9 -44.6 17.65 -47.65Q23.4 -50.7 30.5 -50.7Q37.6 -50.7 42.6 -48.1Q47.6 -45.5 50.65 -41.2Q53.7 -36.9 54.6 -31.7L44.6 -29.6Q44.1 -32.9 42.5 -35.6Q40.9 -38.3 38 -39.9Q35.1 -41.5 30.7 -41.5Q26.4 -41.5 22.95 -39.55Q19.5 -37.6 17.5 -33.95Q15.5 -30.3 15.5 -25.1L15.5 -24.2Q15.5 -19 17.5 -15.3Q19.5 -11.6 22.95 -9.7Q26.4 -7.8 30.7 -7.8Q37.2 -7.8 40.6 -11.15Q44 -14.5 44.9 -19.7L54.9 -17.4Q53.7 -12.3 50.65 -8Q47.6 -3.7 42.6 -1.15Q37.6 1.4 30.5 1.4Z"/><path d="M66.79 0L66.79 -49.3L77.09 -49.3L77.09 0ZM71.99 -56Q68.99 -56 66.94 -57.95Q64.89 -59.9 64.89 -63Q64.89 -66.1 66.94 -68.05Q68.99 -70 71.99 -70Q75.09 -70 77.09 -68.05Q79.09 -66.1 79.09 -63Q79.09 -59.9 77.09 -57.95Q75.09 -56 71.99 -56Z"/><path d="M110.85 0Q106.35 0 103.7 -2.7Q101.05 -5.4 101.05 -9.9L101.05 -40.6L87.45 -40.6L87.45 -49.3L101.05 -49.3L101.05 -65.6L111.35 -65.6L111.35 -49.3L126.05 -49.3L126.05 -40.6L111.35 -40.6L111.35 -11.7Q111.35 -8.7 114.15 -8.7L124.45 -8.7L124.45 0Z"/><path d="M138.16 0L138.16 -49.3L148.26 -49.3L148.26 -43.5L149.86 -43.5Q151.06 -46.6 153.71 -48.05Q156.36 -49.5 160.26 -49.5L166.16 -49.5L166.16 -40.2L159.86 -40.2Q154.86 -40.2 151.66 -37.45Q148.46 -34.7 148.46 -29L148.46 0Z"/><path d="M198.11 1.4Q190.71 1.4 184.96 -1.65Q179.21 -4.7 175.91 -10.4Q172.61 -16.1 172.61 -23.9L172.61 -25.4Q172.61 -33.2 175.91 -38.85Q179.21 -44.5 184.96 -47.6Q190.71 -50.7 198.11 -50.7Q205.51 -50.7 211.31 -47.6Q217.11 -44.5 220.41 -38.85Q223.71 -33.2 223.71 -25.4L223.71 -23.9Q223.71 -16.1 220.41 -10.4Q217.11 -4.7 211.31 -1.65Q205.51 1.4 198.11 1.4ZM198.11 -7.8Q204.91 -7.8 209.16 -12.15Q213.41 -16.5 213.41 -24.2L213.41 -25.1Q213.41 -32.8 209.21 -37.15Q205.01 -41.5 198.11 -41.5Q191.41 -41.5 187.16 -37.15Q182.91 -32.8 182.91 -25.1L182.91 -24.2Q182.91 -16.5 187.16 -12.15Q191.41 -7.8 198.11 -7.8Z"/><path d="M236.49 0L236.49 -49.3L246.59 -49.3L246.59 -41.9L248.19 -41.9Q249.59 -44.9 253.19 -47.5Q256.79 -50.1 263.89 -50.1Q269.49 -50.1 273.84 -47.6Q278.19 -45.1 280.69 -40.55Q283.19 -36 283.19 -29.6L283.19 0L272.89 0L272.89 -28.8Q272.89 -35.2 269.69 -38.25Q266.49 -41.3 260.89 -41.3Q254.49 -41.3 250.64 -37.1Q246.79 -32.9 246.79 -24.9L246.79 0Z"/>
  </g>
</svg>
